<svg id="Layer_1" data-name="Layer 1" xmlns="http://www.w3.org/2000/svg" viewBox="0 0 723.06 723.06"><defs><style>.cls-1{fill:#38c172;}.cls-2{fill:#fff;}</style></defs><title>cr_logo_18_01</title><circle class="cls-1" cx="361.53" cy="361.53" r="361.53"/><path class="cls-2" d="M306.07,349.36C346.75,317.6,398.57,302,456.51,302c30.09,0,72.44,6.14,98.62,13.38,6.7,1.66,10.6,2.78,15.6,2.22.56,12.82,19.41-14.75,23.87,19.23-2.78,3.9-19.32-2.47-23.22-5.81-8.36-37.88-41.32-11.74-122.11-11.74-85.26,0-157.68,54-157.68,169.38,0,117,74.1,181.64,165.48,181.64,71.88,0,103.64-46.8,116.45-79.68,3.91-2.78,12.26-1.67,14.48,2.24-3.89,29-18.38,65.74-26.73,76.31a112.9,112.9,0,0,0-19.5,5.59c-12.26,4.45-52.38,12.82-88,12.82-50.16,0-98.07-10.05-138.74-37.34-44.58-30.65-79.12-81.35-79.12-153.22C235.87,435.16,263.73,382.24,306.07,349.36Z" transform="translate(-138.47 -138.47)"/><path class="cls-2" d="M439.46,392.83c0-52.93,5.29-70.63-17.55-73.42l-24.79,6c-3.9-2.79-3.9-11.7.56-13.93,31.19-2.78,69.64-4.46,124.24-4.46,34.54,0,67.42,2.8,93.06,16.72,26.73,13.94,46.24,39,46.24,78,0,52.94-41.79,81.91-69.64,93.05-2.8,3.35,0,8.92,2.78,13.36,44.58,71.89,74.1,116.46,112,148.22,9.47,8.36,23.4,14.48,38.45,15.61,2.78,1.11,3.33,5.57.56,7.8-5,1.68-13.94,2.77-24.53,2.77-47.35,0-75.78-13.91-115.33-70.19-14.49-20.62-37.32-59.07-54.6-84.14-8.37-12.27-17.28-17.82-39.56-17.82-25.08,0-26.2.55-26.2,12.25v70.21c0,58.5-6.71,74.79,25.61,79.25l19.53-7.94c3.34,2.79,2.24,12.27-1.12,13.94-25.06-1.12-44-1.67-66.3-1.67-23.4,0-43.46.55-69.64,1.67-3.34-1.67-4.46-10-1.12-13.94L412.71,673c32.32-3.92,26.75-21.66,26.75-80.16Zm45.68,79.67c0,10,0,16.16,1.68,18.4,1.67,1.66,10,2.77,38.44,2.77,20.06,0,41.24-2.22,57.4-14.47,15-11.7,27.85-31.21,27.85-69.1,0-44-27.29-85.8-89.15-85.8-34.54,0-36.22,2.22-36.22,17.82Z" transform="translate(-138.47 -138.47)"/></svg>