<svg id="Layer_1" data-name="Layer 1" xmlns="http://www.w3.org/2000/svg" viewBox="0 0 69.03 52.05"><defs><style>.cls-1{fill:#fff;}</style></defs><title>logo_cr2018_white</title><path class="cls-1" d="M12.43,9.68c5.49-4.29,12.48-6.4,20.31-6.4A57.86,57.86,0,0,1,46.05,5.09a5.72,5.72,0,0,0,2.11.3c.07,1.73,2.62-2,3.22,2.6-.38.52-2.61-.34-3.13-.79-1.13-5.11-5.58-1.58-16.49-1.58-11.51,0-21.29,7.29-21.29,22.86,0,15.8,10,24.53,22.34,24.53,9.71,0,14-6.32,15.72-10.76a1.58,1.58,0,0,1,2,.3C50,46.46,48,51.43,46.88,52.85a16,16,0,0,0-2.63.76,44.44,44.44,0,0,1-11.89,1.73c-6.77,0-13.24-1.36-18.73-5A24.25,24.25,0,0,1,3,29.61,25,25,0,0,1,12.43,9.68Z" transform="translate(-2.95 -3.28)"/><path class="cls-1" d="M30.43,15.55c0-7.15.72-9.54-2.36-9.91l-3.35.81a1.27,1.27,0,0,1,.07-1.89C29,4.19,34.2,4,41.57,4c4.66,0,9.1.38,12.56,2.26a11.2,11.2,0,0,1,6.24,10.53c0,7.15-5.64,11.06-9.4,12.56-.38.45,0,1.21.38,1.81,6,9.7,10,15.72,15.12,20a9.06,9.06,0,0,0,5.19,2.1.64.64,0,0,1,.07,1.06,12,12,0,0,1-3.31.37c-6.39,0-10.23-1.88-15.57-9.48-2-2.78-5-8-7.37-11.35-1.13-1.66-2.33-2.41-5.34-2.41-3.39,0-3.54.07-3.54,1.65v9.48c0,7.9-.9,10.1,3.46,10.7l2.64-1.07a1.47,1.47,0,0,1-.15,1.88c-3.39-.15-5.95-.22-9-.22-3.16,0-5.86.07-9.4.22A1.45,1.45,0,0,1,24,52.18l2.78,1.19c4.37-.53,3.61-2.92,3.61-10.82ZM36.6,26.3a5.87,5.87,0,0,0,.23,2.49c.22.22,1.35.37,5.19.37,2.71,0,5.57-.3,7.75-1.95,2-1.58,3.76-4.22,3.76-9.33,0-5.94-3.69-11.59-12-11.59-4.66,0-4.89.3-4.89,2.41Z" transform="translate(-2.95 -3.28)"/></svg>