<?xml version="1.0" encoding="utf-8"?>
<!-- Generator: Adobe Illustrator 17.1.0, SVG Export Plug-In . SVG Version: 6.00 Build 0)  -->
<!DOCTYPE svg PUBLIC "-//W3C//DTD SVG 1.1//EN" "http://www.w3.org/Graphics/SVG/1.1/DTD/svg11.dtd">
<svg version="1.1" id="Layer_1" xmlns="http://www.w3.org/2000/svg" xmlns:xlink="http://www.w3.org/1999/xlink" x="0px" y="0px"
	 viewBox="0 0 1041.7 253.3" enable-background="new 0 0 1041.7 253.3" xml:space="preserve">
<g>
	<g>
		<path fill="#BC1F45" stroke="#020202" stroke-width="8" stroke-miterlimit="10" d="M616.1,127.4c0.4-1.8,0.6-3.6,0.6-5.5
			c0-17.4-17-31.5-38-31.5c-4.6,0-8.9,0.7-13,1.9c-12.4-15.9-33.8-26.5-58.3-26.5c-38.3,0-69.4,25.8-69.4,57.6c0,1.5,0.1,3,0.3,4.4
			c-18.6,3.9-32.3,17.8-32.3,34.4c0,19.6,19.1,35.5,42.7,35.5h160.2c23.6,0,42.7-15.9,42.7-35.5
			C651.6,144.8,636.2,130.3,616.1,127.4z"/>
	</g>
	<g>
		<path fill="#FFFFFF" d="M511.3,175.7c-0.5-0.1-1.1-0.1-1.6-0.2c-2.8-0.3-5.5-0.8-8.1-1.8c-0.4-0.1-0.5-0.3-0.5-0.7
			c0-11,0-22.1,0-33.1c0-0.2,0-0.3,0-0.5c1.8,0,3.5,0,5.3,0c0,3.8,0,7.5,0,11.4c0.3-0.1,0.6-0.2,0.8-0.3c2.6-0.9,5.3-1.4,8.1-1.3
			c4.4,0.2,7.7,2.5,9.2,6.4c0.7,1.8,1,3.7,1,5.6c0,2.3-0.1,4.6-0.8,6.9c-1.2,4-3.9,6.3-8.2,7.1c-0.6,0.1-1.3,0.2-2,0.3
			c-0.1,0-0.2,0.1-0.3,0.1C513.3,175.7,512.3,175.7,511.3,175.7z M506.4,162.5c0,2.6,0,5.2,0,7.8c0,0.3,0.1,0.5,0.4,0.6
			c1.6,0.6,3.3,0.9,5,1c1.2,0.1,2.4,0.1,3.6-0.2c2.2-0.6,3.6-2,4.2-4.1c0.9-3,1-6.1,0.4-9.2c-0.2-1.3-0.7-2.5-1.6-3.5
			c-1.3-1.5-3.1-2-5.1-2c-2.2,0-4.4,0.4-6.5,1.2c-0.3,0.1-0.4,0.2-0.4,0.6C506.4,157.3,506.4,159.9,506.4,162.5z"/>
		<path fill="#FFFFFF" d="M601.2,175.7c-0.5-0.1-1.1-0.1-1.6-0.2c-2.8-0.3-5.5-0.8-8.1-1.8c-0.4-0.1-0.5-0.3-0.5-0.7
			c0-11,0-22.1,0-33.1c0-0.1,0-0.3,0-0.5c1.8,0,3.5,0,5.3,0c0,3.8,0,7.5,0,11.4c0.4-0.1,0.7-0.2,1-0.3c2.6-0.9,5.2-1.3,7.9-1.2
			c4.5,0.2,7.8,2.5,9.3,6.5c0.9,2.2,1,4.6,1,6.9c-0.1,2.1-0.3,4.1-1,6.1c-1.2,3.6-3.8,5.7-7.6,6.5c-0.8,0.2-1.6,0.2-2.4,0.3
			c-0.1,0-0.2,0-0.3,0.1C603.2,175.7,602.2,175.7,601.2,175.7z M596.3,162.5c0,2.6,0,5.3,0,7.9c0,0.2,0,0.4,0.3,0.5
			c2.3,0.8,4.6,1.2,7.1,1.1c1.4-0.1,2.8-0.5,3.9-1.4c1-0.9,1.6-2,1.9-3.2c0.8-2.9,0.9-5.8,0.4-8.7c-0.2-1.3-0.6-2.5-1.5-3.5
			c-1.3-1.6-3.2-2.1-5.2-2.2c-2.2,0-4.4,0.4-6.5,1.2c-0.3,0.1-0.4,0.2-0.4,0.5C596.3,157.2,596.3,159.9,596.3,162.5z"/>
		<path fill="#FFFFFF" d="M447.3,141.5c0.2,0,0.3,0,0.5,0c3.9,0,7.8,0,11.8,0c1.9,0,3.7,0.2,5.5,0.7c3.2,1,5.1,3.2,5.5,6.4
			c0.2,1.7,0.2,3.4-0.2,5c-0.7,3-2.6,4.8-5.5,5.8c-1.6,0.5-3.3,0.8-5.1,0.8c-2.2,0-4.4,0-6.7,0c-0.2,0-0.3,0-0.5,0
			c0,4.9,0,9.8,0,14.8c-1.8,0-3.6,0-5.3,0C447.3,163.9,447.3,152.7,447.3,141.5z M452.6,156.6c0.1,0,0.2,0,0.2,0c2,0,4.1,0,6.1,0
			c0.9,0,1.7-0.1,2.6-0.3c1.7-0.4,3-1.3,3.5-3c0.4-1.4,0.4-2.9,0.2-4.3c-0.3-1.7-1.3-2.8-3.1-3.2c-1.1-0.2-2.1-0.4-3.2-0.4
			c-1.9-0.1-3.9,0-5.8,0c-0.1,0-0.3,0-0.4,0C452.6,149,452.6,152.8,452.6,156.6z"/>
		<path fill="#FFFFFF" d="M483.5,175.7c-0.6-0.1-1.3-0.1-1.9-0.2c-1.5-0.2-3-0.7-4.4-1.5c-2.1-1.2-3.1-3.1-3.4-5.4
			c-0.1-0.7-0.1-1.3-0.1-2c0-5.4,0-10.9,0-16.3c0-0.2,0-0.3,0-0.5c1.8,0,3.5,0,5.3,0c0,0.2,0,0.3,0,0.5c0,4.9,0,9.8,0,14.6
			c0,1.2,0.1,2.4,0.5,3.6c0.6,1.9,2,3,4.1,3.3c2.5,0.3,5,0,7.5-0.6c0.3-0.1,0.5-0.3,0.5-0.6c0-6.8,0-13.5,0-20.3c0-0.2,0-0.3,0-0.5
			c1.8,0,3.5,0,5.3,0c0,0.2,0,0.3,0,0.5c0,7.7,0,15.4,0,23.1c0,0.4-0.1,0.5-0.5,0.6c-3.1,0.8-6.3,1.4-9.5,1.6c-0.1,0-0.2,0-0.3,0.1
			C485.5,175.7,484.5,175.7,483.5,175.7z"/>
		<path fill="#FFFFFF" d="M573.4,175.7c-0.6-0.1-1.3-0.1-1.9-0.2c-1.5-0.2-3-0.6-4.3-1.4c-2.1-1.2-3.2-3-3.4-5.4
			c-0.1-0.6-0.1-1.2-0.1-1.8c0-5.5,0-11,0-16.5c0-0.2,0-0.3,0-0.5c1.8,0,3.5,0,5.3,0c0,0.2,0,0.3,0,0.5c0,5,0,9.9,0,14.9
			c0,1.2,0.1,2.3,0.5,3.4c0.6,1.9,2.1,2.9,4.1,3.2c2.5,0.3,4.9,0,7.3-0.6c0.4-0.1,0.6-0.3,0.6-0.7c0-6.7,0-13.4,0-20.1
			c0-0.2,0-0.3,0-0.5c1.8,0,3.5,0,5.3,0c0,0.1,0,0.3,0,0.4c0,7.7,0,15.5,0,23.2c0,0.3-0.1,0.4-0.4,0.5c-3.1,0.8-6.3,1.4-9.5,1.6
			c-0.1,0-0.2,0-0.3,0.1C575.4,175.7,574.4,175.7,573.4,175.7z"/>
		<path fill="#FFFFFF" d="M620.1,143.1c-0.1,0.3-0.2,0.5-0.3,0.8c-0.6,1.4-2.2,2.2-3.9,1.9c-1.6-0.3-2.7-1.6-2.7-3.2
			c0-1.5,1.1-2.8,2.7-3.2c0.1,0,0.2-0.1,0.3-0.1c0.4,0,0.7,0,1.1,0c0,0,0.1,0,0.1,0.1c1.5,0.3,2.4,1.2,2.8,2.6c0,0,0,0,0.1,0.1
			C620.1,142.4,620.1,142.7,620.1,143.1z M619.2,142.6c0-1.5-1.2-2.6-2.6-2.6c-1.4,0-2.6,1.2-2.6,2.6c0,1.4,1.2,2.6,2.6,2.6
			C618.1,145.2,619.2,144.1,619.2,142.6z"/>
		<path fill="#FFFFFF" d="M558.5,175c-1.7,0-3.3,0-4.9,0c-0.9,0-1.9,0-2.8,0c-0.3,0-0.5-0.1-0.6-0.3c-2.2-4-4.3-8-6.5-12
			c-3-5.5-5.9-11-8.9-16.4c-0.1-0.1-0.1-0.2-0.2-0.3c0,9.7,0,19.4,0,29.1c-1.6,0-3.1,0-4.6,0c0-11.1,0-22.3,0-33.4
			c0.1,0,0.3,0,0.4,0c2.4,0,4.8,0,7.3,0c0.3,0,0.4,0.1,0.6,0.3c5.2,9.5,10.3,19.1,15.5,28.6c0.1,0.1,0.1,0.2,0.3,0.3
			c0-9.7,0-19.4,0-29.2c1.6,0,3.1,0,4.7,0C558.5,152.7,558.5,163.9,558.5,175z"/>
		<path fill="#FFFFFF" d="M615.3,144.2c0-1,0-2,0-3c0-0.1,0.1-0.2,0.2-0.2c0.5,0,1-0.1,1.6,0c0.6,0,0.9,0.3,1,0.7
			c0.1,0.4-0.1,0.6-0.6,0.9c0.6,0.3,0.5,1,0.8,1.5c-0.7,0.2-0.8,0.1-1-0.5c-0.2-0.7-0.3-0.8-1.1-0.7c0,0.2,0,0.4,0,0.6
			c0,0.2,0,0.4,0,0.6C615.8,144.2,615.6,144.2,615.3,144.2z M616.1,142.4c0.4,0,0.8,0.1,1.1-0.3c0.1-0.1,0-0.4,0-0.5
			c-0.3-0.3-0.7-0.3-1-0.2C616.1,141.8,616.1,142.1,616.1,142.4z"/>
	</g>
</g>
<g>
	<path fill="#010101" d="M908.7,44.4c-0.9,0-1.8,0.4-2.9,1.2c-2.6-1-5.2-1.4-7.5,0.7c-3.5-0.5-4.7,0.5-5.6,1.6
		c-0.8,0-5.8-0.8-8.1,2.7c-5.8-0.7-7.6,3.4-5.6,7.2c-1.2,1.8-2.4,3.7,0.4,7.2c-1,2-0.4,4.1,1.9,6.6c-0.6,2.7,0.6,4.7,2.7,6.2
		c-0.4,3.8,3.4,5.9,4.6,6.7c0.4,2.2,1.4,4.3,5.8,5.4c0.7,3.3,3.4,3.8,5.9,4.5c-8.4,4.9-15.7,11.4-15.6,27.2l-1.2,2.2
		c-9.7,5.9-18.4,24.8-4.8,40.2c0.9,4.8,2.4,8.3,3.7,12.1c2,15.4,15,22.7,18.4,23.5c5,3.8,10.4,7.4,17.6,10c6.8,7,14.2,9.7,21.6,9.7
		c0.1,0,0.2,0,0.3,0c7.4,0,14.8-2.7,21.6-9.7c7.2-2.5,12.6-6.2,17.6-10c3.4-0.9,16.4-8.1,18.4-23.5c1.3-3.8,2.8-7.3,3.7-12.1
		c13.6-15.4,4.9-34.3-4.8-40.2l-1.2-2.2c0-15.8-7.2-22.3-15.6-27.2c2.6-0.7,5.2-1.2,5.9-4.5c4.4-1.1,5.3-3.2,5.8-5.4
		c1.1-0.8,5-3,4.6-6.7c2.2-1.5,3.4-3.4,2.7-6.2c2.3-2.6,2.9-4.7,1.9-6.6c2.8-3.5,1.5-5.3,0.4-7.2c2.1-3.8,0.2-7.9-5.6-7.2
		c-2.3-3.4-7.4-2.7-8.1-2.7c-0.9-1.1-2-2.1-5.6-1.6c-2.3-2.1-4.9-1.7-7.5-0.7c-3.1-2.5-5.2-0.5-7.6,0.3c-3.8-1.2-4.7,0.5-6.5,1.2
		c-4.1-0.9-5.4,1-7.4,3l-2.3,0c-6.3,3.7-9.4,11.2-10.5,15.1c-1.1-3.9-4.2-11.4-10.5-15.1l-2.3,0c-2-2-3.3-3.9-7.4-3
		c-1.9-0.7-2.7-2.4-6.5-1.2C911.8,45.4,910.3,44.3,908.7,44.4L908.7,44.4z"/>
	<path fill="#75AA42" d="M896.2,60.6c16.6,8.6,26.3,15.5,31.5,21.4c-2.7,10.9-16.8,11.4-22,11c1.1-0.5,1.9-1.1,2.3-2
		c-1.3-0.9-5.9-0.1-9.1-1.9c1.2-0.3,1.8-0.5,2.4-1.4c-3-1-6.3-1.8-8.2-3.4c1,0,2,0.2,3.4-0.7c-2.7-1.5-5.6-2.6-7.9-4.9
		c1.4,0,2.9,0,3.4-0.5c-2.5-1.5-4.6-3.3-6.3-5.1c2,0.2,2.8,0,3.3-0.3c-1.9-1.9-4.3-3.5-5.4-5.9c1.5,0.5,2.8,0.7,3.8,0
		c-0.6-1.4-3.4-2.3-4.9-5.7c1.5,0.1,3.2,0.3,3.5,0c-0.7-2.9-1.9-4.5-3.1-6.2c3.3,0,8.3,0,8-0.3l-2-2.1c3.2-0.9,6.5,0.1,8.9,0.9
		c1.1-0.8,0-1.9-1.3-3c2.7,0.4,5.2,1,7.4,1.9c1.2-1.1-0.8-2.2-1.7-3.2c4.2,0.8,6,1.9,7.8,3c1.3-1.2,0.1-2.3-0.8-3.4
		c3.2,1.2,4.8,2.7,6.5,4.2c0.6-0.8,1.5-1.4,0.4-3.3c2.3,1.3,4,2.8,5.2,4.6c1.4-0.9,0.8-2.1,0.8-3.2c2.3,1.9,3.8,3.9,5.7,5.9
		c0.4-0.3,0.7-1.2,1-2.6c5.6,5.4,13.5,19.1,2,24.5C920.8,70.9,909.1,65,896.2,60.6L896.2,60.6z"/>
	<path fill="#75AA42" d="M984.3,60.6C967.7,69.2,958,76.1,952.8,82c2.7,10.9,16.8,11.4,22,11c-1.1-0.5-1.9-1.1-2.3-2
		c1.3-0.9,5.9-0.1,9.1-1.9c-1.2-0.3-1.8-0.5-2.4-1.4c3-1,6.3-1.8,8.2-3.4c-1,0-2,0.2-3.4-0.7c2.7-1.5,5.6-2.6,7.9-4.9
		c-1.4,0-2.9,0-3.4-0.5c2.5-1.5,4.6-3.3,6.3-5.1c-2,0.2-2.8,0-3.3-0.3c1.9-1.9,4.3-3.5,5.4-5.9c-1.5,0.5-2.8,0.7-3.8,0
		c0.6-1.4,3.4-2.3,4.9-5.7c-1.5,0.1-3.2,0.3-3.5,0c0.7-2.9,1.9-4.5,3.1-6.2c-3.3,0-8.3,0-8-0.3l2-2.1c-3.2-0.9-6.5,0.1-8.9,0.9
		c-1.1-0.8,0-1.9,1.3-3c-2.7,0.4-5.2,1-7.4,1.9c-1.2-1.1,0.8-2.2,1.7-3.2c-4.2,0.8-6,1.9-7.8,3c-1.3-1.2-0.1-2.3,0.8-3.4
		c-3.2,1.2-4.8,2.7-6.5,4.2c-0.6-0.8-1.5-1.4-0.4-3.3c-2.3,1.3-4,2.8-5.2,4.6c-1.4-0.9-0.8-2.1-0.8-3.2c-2.3,1.9-3.8,3.9-5.7,5.9
		c-0.4-0.3-0.7-1.2-1-2.6c-5.6,5.4-13.5,19.1-2,24.5C959.7,70.9,971.4,65,984.3,60.6L984.3,60.6z"/>
	<path fill="#BC1F45" d="M960.4,171.2c0.1,10.1-8.8,18.4-19.8,18.4c-11,0.1-19.9-8.1-20-18.2c0-0.1,0-0.1,0-0.2
		c-0.1-10.1,8.8-18.4,19.8-18.4c11-0.1,19.9,8.1,20,18.2C960.4,171,960.4,171.1,960.4,171.2z"/>
	<path fill="#BC1F45" d="M929,118.8c8.2,5.4,9.7,17.6,3.3,27.3c-6.4,9.7-18.3,13.2-26.5,7.8l0,0c-8.2-5.4-9.7-17.6-3.3-27.3
		S920.7,113.4,929,118.8L929,118.8z"/>
	<path fill="#BC1F45" d="M951.2,117.8c-8.2,5.4-9.7,17.6-3.3,27.3s18.3,13.2,26.5,7.8l0,0c8.2-5.4,9.7-17.6,3.3-27.3
		C971.3,115.9,959.4,112.4,951.2,117.8L951.2,117.8z"/>
	<path fill="#BC1F45" d="M887.8,127.6c8.9-2.4,3,36.8-4.2,33.6C875.6,154.8,873,136,887.8,127.6z"/>
	<path fill="#BC1F45" d="M990.6,127.1c-8.9-2.4-3,36.8,4.2,33.6C1002.8,154.3,1005.4,135.5,990.6,127.1L990.6,127.1z"/>
	<path fill="#BC1F45" d="M960.4,97.9c15.4-2.6,28.1,6.5,27.6,23.2C987.5,127.5,954.7,98.9,960.4,97.9z"/>
	<path fill="#BC1F45" d="M917.9,97.4c-15.4-2.6-28.1,6.5-27.6,23.2C890.8,127,923.6,98.4,917.9,97.4L917.9,97.4z"/>
	<path fill="#BC1F45" d="M940,93.5c-9.2-0.2-18,6.8-18,10.9c0,5,7.2,10,18,10.2c11,0.1,18.1-4.1,18.1-9.2
		C958.2,99.6,948.1,93.4,940,93.5L940,93.5z"/>
	<path fill="#BC1F45" d="M940.6,195.3c8-0.3,18.7,2.6,18.7,6.5c0.1,3.8-9.7,12.3-19.3,12.1c-9.9,0.4-19.6-8.1-19.4-11
		C920.4,198.5,932.6,195.1,940.6,195.3L940.6,195.3z"/>
	<path fill="#BC1F45" d="M911,172.3c5.7,6.9,8.3,18.9,3.5,22.4c-4.5,2.7-15.4,1.6-23.2-9.5c-5.2-9.3-4.6-18.9-0.9-21.6
		C896,160.2,904.5,164.7,911,172.3L911,172.3z"/>
	<path fill="#BC1F45" d="M968.9,170.1c-6.2,7.2-9.6,20.4-5.1,24.6c4.3,3.3,15.8,2.8,24.3-9c6.2-7.9,4.1-21.2,0.6-24.7
		C983.5,157,976,162.2,968.9,170.1L968.9,170.1z"/>
</g>
<g>
	<path fill="#010101" d="M109.3,90.7c4.5,0,8.2-3.7,8.2-8.2c0-4.5-3.7-8.2-8.2-8.2c-4.5,0-8.2,3.7-8.2,8.2
		C101.1,87.1,104.8,90.7,109.3,90.7z"/>
	<path fill="#010101" d="M131.1,90.7c4.5,0,8.2-3.7,8.2-8.2c0-4.5-3.7-8.2-8.2-8.2c-4.5,0-8.2,3.7-8.2,8.2
		C123,87.1,126.6,90.7,131.1,90.7z"/>
	<rect x="37" y="107.3" fill="#65AA9C" width="160.2" height="87.2"/>
	<path fill="#010101" d="M153,90.7c4.5,0,8.2-3.7,8.2-8.2c0-4.5-3.7-8.2-8.2-8.2c-4.5,0-8.2,3.7-8.2,8.2
		C144.8,87.1,148.5,90.7,153,90.7z"/>
	<path fill="#010101" d="M188.9,60.2H46c-8,0-14.5,6.5-14.5,14.5V189c0,8,6.5,14.5,14.5,14.5h142.8c8,0,14.5-6.5,14.5-14.5V74.7
		C203.4,66.7,196.9,60.2,188.9,60.2z M46,72.5h142.8c1.2,0,2.2,1,2.2,2.2v29.5H43.8V74.7C43.8,73.5,44.8,72.5,46,72.5z M188.9,191.2
		H46c-1.2,0-2.2-1-2.2-2.2v-72.5h147.3V189C191.1,190.2,190.1,191.2,188.9,191.2z"/>
</g>
<g>
	<g>
		<g id="Layer_5_55_">
			<path fill="#010101" d="M339.8,129.9l-32.4-22.6c-1.3-1.1-2.3-0.6-2.3,1.1v9.4c0,1.7-1.4,3-3,3l-20,0h-15.6v0c-1.7,0-3,1.4-3,3
				l0,15.9c0,1.7,1.4,3,3,3l35.3-0.1h0.4c1.7,0,3,1.4,3,3v9.4c0,1.7,1,2.1,2.3,1.1l32.4-22.6C341.1,132.7,341.1,131,339.8,129.9z"/>
		</g>
	</g>
</g>
<g>
	<g>
		<g id="Layer_5_1_">
			<path fill="#010101" d="M799.1,129.9l-32.4-22.6c-1.3-1.1-2.3-0.6-2.3,1.1v9.4c0,1.7-1.4,3-3,3l-20,0h-15.6v0c-1.7,0-3,1.4-3,3
				l0,15.9c0,1.7,1.4,3,3,3l35.3-0.1h0.4c1.7,0,3,1.4,3,3v9.4c0,1.7,1,2.1,2.3,1.1l32.4-22.6C800.4,132.7,800.4,131,799.1,129.9z"/>
		</g>
	</g>
</g>
</svg>
